<svg xmlns="http://www.w3.org/2000/svg" xmlns:xlink="http://www.w3.org/1999/xlink" id="Layer_1" x="0px" y="0px" viewBox="0 0 50 50" style="enable-background:new 0 0 50 50;" xml:space="preserve"><style type="text/css">	.st0{fill:#00005C;}	.st1{fill:#9A99FF;}	.st2{fill:#00005B;}	.st3{fill:#9999FF;}</style><g>	<path class="st2" d="M40.74,48.9H9.26c-4.86,0-8.8-3.94-8.8-8.8V9.9c0-4.86,3.94-8.8,8.8-8.8h31.49c4.86,0,8.8,3.94,8.8,8.8v30.2   C49.55,44.96,45.61,48.9,40.74,48.9z"></path>	<g>		<path class="st3" d="M16.59,13.86c0.8,0,1.6,0,2.4,0c0.37,0,0.37,0,0.49,0.34c2.42,6.77,4.84,13.54,7.25,20.3    c0.02,0.05,0.04,0.1,0.05,0.15c0.04,0.21-0.02,0.28-0.23,0.29c-0.48,0-0.97,0-1.45,0c-0.86,0-1.72,0-2.58,0    c-0.37,0-0.4-0.02-0.51-0.36c-0.51-1.48-1.02-2.96-1.52-4.45c-0.06-0.18-0.14-0.25-0.34-0.25c-2.34,0.01-4.68,0.01-7.03,0    c-0.19,0-0.26,0.06-0.32,0.23c-0.47,1.46-0.94,2.93-1.41,4.39c-0.12,0.38-0.18,0.42-0.57,0.42c-1.14,0-2.29,0-3.43,0    c-0.47,0-0.52-0.07-0.37-0.51c1.52-4.34,3.04-8.67,4.55-13.01c0.68-1.93,1.36-3.87,2.01-5.81c0.15-0.44,0.15-0.93,0.2-1.4    c0.03-0.32,0.03-0.34,0.35-0.34C14.94,13.86,15.77,13.86,16.59,13.86z M14.09,25.89c1.68,0,3.37,0,5.08,0    c-0.87-2.79-1.73-5.58-2.58-8.28C15.77,20.32,14.93,23.1,14.09,25.89z"></path>		<path class="st3" d="M41.42,27.49c0.19,0,0.88,0,0.88,0s0-1.68-0.03-2.23c-0.05-0.94-0.19-1.88-0.5-2.76    c-0.48-1.37-1.37-2.54-2.64-3.28c-0.68-0.39-1.43-0.65-2.2-0.79c-2.75-0.49-5.77,0.16-7.49,2.48c-1.38,1.85-1.78,4.29-1.78,6.55    c0,0,0.02,6.92,7.36,7.47c0,0,3.22,0.24,5.85-0.9v-3.5c0,0-8.18,2.49-8.71-3.07c1.26,0,2.51,0.01,3.77,0.01    C37.75,27.48,39.59,27.48,41.42,27.49z M35.16,21.51c1.66,0,3,1.34,3,2.99h-6C32.16,22.85,33.5,21.51,35.16,21.51z"></path>	</g></g></svg>