<svg xmlns="http://www.w3.org/2000/svg" xmlns:xlink="http://www.w3.org/1999/xlink" id="Layer_1" x="0px" y="0px" viewBox="0 0 50 50" style="enable-background:new 0 0 50 50;" xml:space="preserve"><style type="text/css">	.st0{fill:#92003B;}	.st1{fill-rule:evenodd;clip-rule:evenodd;fill:#FFFFFF;}</style><path class="st0" d="M49.17,7.35c-0.82-2.7-2.9-4.86-5.55-5.77c-0.9-0.31-1.87-0.48-2.87-0.48H9.26c-1.01,0-1.99,0.17-2.9,0.49  c-2.63,0.92-4.7,3.05-5.52,5.73C0.59,8.14,0.46,9,0.46,9.9v30.2c0,0.88,0.13,1.73,0.37,2.54c0.81,2.7,2.9,4.86,5.55,5.78  c0.9,0.31,1.87,0.48,2.88,0.48h31.48c1.01,0,1.98-0.17,2.88-0.48c2.66-0.92,4.74-3.08,5.55-5.78c0.24-0.81,0.37-1.66,0.37-2.54V9.9  C49.54,9.01,49.41,8.16,49.17,7.35z M17.52,37.4h-5V12.6h5V37.4z M37.44,37.4H22.5v-4.92h14.94V37.4z M37.44,27.5H22.5v-5h14.94  V27.5z M37.44,17.58H22.5V12.6h14.94V17.58z"></path><desc>Created using Figma</desc><rect x="22.5" y="32.48" class="st1" width="14.94" height="4.92"></rect><rect x="22.5" y="22.5" class="st1" width="14.94" height="5"></rect><rect x="22.5" y="12.6" class="st1" width="14.94" height="4.98"></rect><rect x="12.52" y="12.6" class="st1" width="5" height="24.8"></rect></svg>