<svg xmlns="http://www.w3.org/2000/svg" xmlns:xlink="http://www.w3.org/1999/xlink" id="Layer_1" x="0px" y="0px" viewBox="0 0 50 50" style="enable-background:new 0 0 50 50;" xml:space="preserve"><style type="text/css">	.st0{fill:#FFFFFF;}	.st1{fill:#0ACF83;}	.st2{fill:#A259FF;}	.st3{fill:#F24E1E;}	.st4{fill:#FF7262;}	.st5{fill:#1ABCFE;}</style><path class="st0" d="M40.74,48.9H9.26c-4.86,0-8.8-3.94-8.8-8.8V9.9c0-4.86,3.94-8.8,8.8-8.8h31.49c4.86,0,8.8,3.94,8.8,8.8v30.2  C49.54,44.96,45.6,48.9,40.74,48.9z"></path><desc>Created using Figma</desc><g>	<path id="path0_fill" class="st1" d="M18.85,43.46c3.4,0,6.15-2.76,6.15-6.15v-6.15h-6.15c-3.4,0-6.15,2.76-6.15,6.15   S15.44,43.46,18.85,43.46z"></path>	<path id="path1_fill" class="st2" d="M12.69,25c0-3.4,2.76-6.15,6.15-6.15H25v12.31h-6.15C15.44,31.15,12.69,28.4,12.69,25z"></path>	<path id="path1_fill_1_" class="st3" d="M12.69,12.69c0-3.4,2.76-6.15,6.15-6.15H25v12.31h-6.15   C15.44,18.85,12.69,16.08,12.69,12.69z"></path>	<path id="path2_fill" class="st4" d="M25,6.54h6.15c3.4,0,6.15,2.76,6.15,6.15s-2.76,6.15-6.15,6.15H25V6.54z"></path>	<path id="path3_fill" class="st5" d="M37.31,25c0,3.4-2.76,6.15-6.15,6.15S25,28.4,25,25s2.76-6.15,6.15-6.15S37.31,21.6,37.31,25z   "></path></g></svg>