<svg xmlns="http://www.w3.org/2000/svg" xmlns:xlink="http://www.w3.org/1999/xlink" id="Layer_1" x="0px" y="0px" viewBox="0 0 50 50" style="enable-background:new 0 0 50 50;" xml:space="preserve"><style type="text/css">	.st0{fill-rule:evenodd;clip-rule:evenodd;fill:#FFFFFF;}	.st1{fill:#E44D26;}	.st2{fill:#FFFFFF;}</style><desc>Created using Figma</desc><path class="st0" d="M49.54,9.9v30.2c0,0.88-0.13,1.73-0.37,2.54c-0.81,2.7-2.89,4.86-5.55,5.78c-0.9,0.31-1.87,0.48-2.88,0.48H9.26  c-1.01,0-1.98-0.17-2.88-0.48c-2.65-0.92-4.74-3.08-5.55-5.78c-0.24-0.81-0.37-1.66-0.37-2.54V9.9c0-0.9,0.13-1.76,0.38-2.58  c0.82-2.68,2.89-4.81,5.52-5.73C7.27,1.27,8.25,1.1,9.26,1.1h31.49c1,0,1.97,0.17,2.87,0.48c2.65,0.91,4.73,3.07,5.55,5.77  C49.41,8.16,49.54,9.01,49.54,9.9z"></path><g id="_x31_67-html5">	<g>		<g>			<g>				<g>					<g>						<path class="st1" d="M7.86,5.01l3.12,35.33l13.98,4.66l14.07-4.66l3.12-35.33H7.86z"></path>					</g>				</g>			</g>		</g>		<polygon class="st2" points="35.37,16.42 18.97,16.42 19.33,20.83 35.01,20.83 33.79,34.08 25.05,36.49 25.05,36.51 24.96,36.51     16.15,34.08 15.61,28.15 19.87,28.15 20.18,30.71 24.96,32.01 29.75,30.71 30.28,25.16 15.39,25.16 14.24,12.16 35.76,12.16   "></polygon>	</g></g><g id="Layer_1_00000049188080725591515780000012850899298113395115_"></g></svg>