<svg xmlns="http://www.w3.org/2000/svg" xmlns:xlink="http://www.w3.org/1999/xlink" id="Layer_1" x="0px" y="0px" viewBox="0 0 50 50" style="enable-background:new 0 0 50 50;" xml:space="preserve"><style type="text/css">	.st0{fill:#00005C;}	.st1{fill:#9A99FF;}	.st2{fill:#2D0402;}	.st3{fill:#FF9A00;}	.st4{fill:#00005B;}	.st5{fill:#9999FF;}</style><g>	<path class="st2" d="M40.73,48.98H9.27c-4.87,0-8.82-3.95-8.82-8.82V9.84c0-4.87,3.95-8.82,8.82-8.82h31.46   c4.87,0,8.82,3.95,8.82,8.82v30.33C49.55,45.03,45.6,48.98,40.73,48.98z"></path>	<g>		<rect x="33.98" y="20.22" class="st3" width="4.49" height="16.42"></rect>		<circle class="st3" cx="36.22" cy="15.94" r="2.58"></circle>		<g>			<path class="st3" d="M24.25,15.01h-5.79l0,0c0,0.97-0.17,1.94-0.5,2.85L11.2,36.64h4.74l1.7-5.17l7.6-0.06l1.74,5.23h5.01     L24.25,15.01z M18.88,27.23l2.47-8.4l2.59,8.4H18.88z"></path>		</g>	</g></g></svg>