<svg xmlns="http://www.w3.org/2000/svg" xmlns:xlink="http://www.w3.org/1999/xlink" id="Layer_1" x="0px" y="0px" viewBox="0 0 50 50" style="enable-background:new 0 0 50 50;" xml:space="preserve"><style type="text/css">	.st0{fill:#00005C;}	.st1{fill:#9A99FF;}	.st2{fill:#2D0402;}	.st3{fill:#FF9A00;}	.st4{fill:#001E36;}	.st5{fill:#30A8FF;}	.st6{fill:#00005B;}	.st7{fill:#9999FF;}</style><g>	<path class="st4" d="M40.73,48.98H9.27c-4.87,0-8.82-3.95-8.82-8.82V9.84c0-4.87,3.95-8.82,8.82-8.82h31.46   c4.87,0,8.82,3.95,8.82,8.82v30.33C49.55,45.03,45.6,48.98,40.73,48.98z"></path>	<g>		<path class="st5" d="M19.71,13.31h-8v21.32h4.49v-6.66h3.51c2.02,0,3.86-0.82,5.18-2.15c1.33-1.33,2.15-3.16,2.15-5.18    C27.04,16.59,23.76,13.31,19.71,13.31z M21.59,23.08c-0.63,0.63-1.49,1.01-2.45,1.01H16.2v-6.92h2.94c1.91,0,3.46,1.55,3.46,3.46    C22.6,21.59,22.21,22.46,21.59,23.08z"></path>	</g>	<path class="st5" d="M41.06,29.85c0,1.42-0.66,2.77-1.7,3.71c-1.17,1.06-2.8,1.52-4.35,1.64c-0.19,0.01-0.37,0.02-0.56,0.03   c-1.72,0.04-3.53-0.33-5.1-1.05c-0.02-0.01-0.03-0.02-0.05-0.02c0-1.26,0.01-2.51,0.01-3.77c0,0.07,1.24,0.37,1.4,0.42   c1.42,0.47,3.12,0.81,4.61,0.62c0.32-0.04,0.64-0.12,0.89-0.32c0.92-0.77-0.01-1.72-0.77-2.09c-0.82-0.4-1.69-0.65-2.53-1.01   c-0.79-0.34-1.54-0.78-2.17-1.37c-2.08-1.94-2-5.2,0.12-7.08c1.2-1.07,2.82-1.41,4.39-1.47c1.62-0.07,3.26,0.22,4.76,0.83   c0.06,0.02,0.12,0.05,0.15,0.1c0.03,0.05,0.03,0.1,0.03,0.15c0,1.28,0,2.56,0,3.85c-0.24-0.21-0.58-0.3-0.87-0.42   c-0.31-0.14-0.64-0.26-0.96-0.36c-1.16-0.37-2.66-0.71-3.84-0.31c-0.44,0.15-0.76,0.46-0.76,0.94c0,0.75,0.73,1.11,1.33,1.38   c0.74,0.34,1.53,0.54,2.27,0.89C39.27,26.03,41.06,27.56,41.06,29.85z"></path></g></svg>