<svg xmlns="http://www.w3.org/2000/svg" xmlns:xlink="http://www.w3.org/1999/xlink" id="Layer_1" x="0px" y="0px" viewBox="0 0 50 50" style="enable-background:new 0 0 50 50;" xml:space="preserve"><style type="text/css">	.st0{fill:#00005C;}	.st1{fill:#9A99FF;}</style><g>	<path class="st0" d="M40.73,48.98H9.27c-4.87,0-8.82-3.95-8.82-8.82V9.84c0-4.87,3.95-8.82,8.82-8.82h31.46   c4.87,0,8.82,3.95,8.82,8.82v30.33C49.55,45.03,45.6,48.98,40.73,48.98z"></path>	<g>		<g>			<path class="st1" d="M18.9,14.34h-8v21.32h4.49V29h3.51c2.02,0,3.86-0.82,5.18-2.15c1.33-1.33,2.15-3.16,2.15-5.18     C26.23,17.62,22.94,14.34,18.9,14.34z M20.77,24.12c-0.63,0.63-1.49,1.01-2.45,1.01h-2.94v-6.92h2.94c1.91,0,3.46,1.55,3.46,3.46     C21.79,22.63,21.4,23.49,20.77,24.12z"></path>		</g>		<path class="st1" d="M33.4,21.42v-2.07h-4.28v16.31h4.28v-9.28c0-0.78,0.37-1.51,1.01-1.95c1.72-1.19,4.69-1.03,4.69-1.03v-4.49    C35.39,18.91,33.4,21.42,33.4,21.42z"></path>	</g></g></svg>