<svg xmlns="http://www.w3.org/2000/svg" xmlns:xlink="http://www.w3.org/1999/xlink" id="Layer_1" x="0px" y="0px" viewBox="0 0 50 50" style="enable-background:new 0 0 50 50;" xml:space="preserve"><style type="text/css">	.st0{fill-rule:evenodd;clip-rule:evenodd;fill:#FFFFFF;}	.st1{fill:#FE642D;}</style><desc>Created using Figma</desc><path class="st0" d="M49.54,9.9v30.2c0,0.88-0.13,1.73-0.37,2.54c-0.81,2.7-2.89,4.86-5.55,5.78c-0.9,0.31-1.87,0.48-2.88,0.48H9.26  c-1.01,0-1.98-0.17-2.88-0.48c-2.65-0.92-4.74-3.08-5.55-5.78c-0.24-0.81-0.37-1.66-0.37-2.54V9.9c0-0.9,0.13-1.76,0.38-2.58  c0.82-2.68,2.89-4.81,5.52-5.73C7.27,1.27,8.25,1.1,9.26,1.1h31.49c1,0,1.97,0.17,2.87,0.48c2.65,0.91,4.73,3.07,5.55,5.77  C49.41,8.16,49.54,9.01,49.54,9.9z"></path><g id="Layer_1_00000049188080725591515780000012850899298113395115_"></g><g>	<path class="st1" d="M23.03,11.18c3.42,0,6.84-0.01,10.26,0c1.73,0,3.44,0.21,5.11,0.69c2.18,0.63,4.13,1.68,5.75,3.29   c1.84,1.82,3,4.02,3.55,6.54c0.71,3.24,0.33,6.35-1.16,9.31c-1.82,3.62-4.71,5.98-8.58,7.14c-1.47,0.44-2.99,0.65-4.52,0.68   c-4.09,0.08-8.07-0.57-11.96-1.84c-3.06-1-6-2.27-8.77-3.93c-1.04-0.62-2.03-1.32-2.95-2.11c-0.17-0.15-0.35-0.3-0.47-0.5   c-0.26-0.43-0.05-0.85,0.46-0.9c0.08-0.01,0.17-0.01,0.25-0.01c2.43,0,4.86,0,7.29,0c0.13,0,0.25,0,0.37-0.04   c0.21-0.06,0.38-0.18,0.43-0.41c0.05-0.23-0.04-0.41-0.2-0.56c-0.11-0.11-0.25-0.18-0.39-0.25c-2.07-1-4.09-2.08-6.08-3.22   c-2.47-1.42-4.88-2.93-7.11-4.71c-0.68-0.55-1.34-1.13-1.96-1.76c-0.21-0.22-0.4-0.45-0.39-0.78c0-0.36,0.22-0.61,0.58-0.64   c0.13-0.01,0.26-0.02,0.4-0.02c5.35,0,10.71,0,16.06,0c0.12,0,0.24,0,0.35-0.03c0.23-0.05,0.4-0.17,0.45-0.41   c0.05-0.24-0.04-0.44-0.24-0.58c-0.15-0.11-0.33-0.18-0.5-0.25c-1.9-0.77-3.76-1.63-5.54-2.67c-0.46-0.27-0.9-0.56-1.31-0.88   c-0.2-0.16-0.37-0.34-0.32-0.63c0.04-0.27,0.2-0.44,0.47-0.48c0.12-0.02,0.25-0.02,0.37-0.02C16.16,11.18,19.59,11.18,23.03,11.18z    M34.39,34.22c0.42,0.02,0.9-0.02,1.39-0.1c2.23-0.36,4.14-1.34,5.61-3.06c2.31-2.71,2.94-5.82,1.85-9.21   c-1.33-4.11-5.38-6.69-9.84-6.26c-2.24,0.22-4.18,1.12-5.77,2.72c-2.25,2.27-3.15,5.02-2.59,8.17   C25.84,30.98,29.77,34.22,34.39,34.22z"></path>	<path class="st1" d="M40.22,25.82c-0.26,0-0.49,0-0.72-0.04c-0.45-0.07-0.66-0.25-0.77-0.7c-0.08-0.34-0.11-0.69-0.19-1.02   c-0.47-2.07-2.03-3.42-4.14-3.59c-0.61-0.05-0.84-0.26-0.92-0.87c-0.06-0.42-0.05-0.85,0.04-1.27c0.09-0.4,0.3-0.57,0.7-0.58   c1.8-0.03,3.41,0.5,4.81,1.64c1.44,1.17,2.31,2.68,2.6,4.52c0.05,0.34,0.07,0.68,0.06,1.02c-0.02,0.52-0.25,0.77-0.77,0.84   C40.68,25.81,40.44,25.82,40.22,25.82z"></path></g></svg>