<svg xmlns="http://www.w3.org/2000/svg" xmlns:xlink="http://www.w3.org/1999/xlink" id="Layer_1" x="0px" y="0px" viewBox="0 0 425.12 175.87" style="enable-background:new 0 0 425.12 175.87;" xml:space="preserve"><style type="text/css">	.st0{fill:#15CCFF;}	.st1{fill:#A882FD;}</style><g>	<path class="st0" d="M123.87,37.25c-1.06,3.05-5.65,4.56-8.88,5.01c-2.14,0.3-7.67,0.32-7.01-2.77c0.82-3.87,0.8-7.82-0.35-11.64   c-2.16-7.11-7.83-13.13-15.37-16.41c-3.53-1.54-7.33-2.53-11.28-2.75c-4.24-0.24-7.8,0.29-11.31,1.18   c-7.93,2.01-15.49,5.8-22.63,10.42c-6.67,4.31-12.73,9.56-17.78,15.31c-9.46,10.79-22.08,29.72-5.96,40.47   c6.95,4.64,16.49,6.2,24.92,7.35c9.88,1.35,19.88,1.9,29.75,3.34c5.79-3.72,11.67-7.28,17.48-10.71c1.24-0.73,4.04-1.59,5.49-0.8   c1.51,0.82,0.58,1.95-0.58,2.67c-4.09,2.53-8.17,5.08-12.19,7.7c-1.17,0.76-2.34,1.53-3.5,2.3c15.01,3.03,32.31,9.67,32.4,24.71   c0.05,8.17-4.56,15.88-9.54,22.57c-4.73,6.35-10.4,12.22-16.72,17.41c-6.33,5.19-13.38,9.79-20.88,13.61   c-8.31,4.23-17.58,8.36-27.23,9.42c-8.2,0.9-17.89-0.47-22.61-7.06c-4.17-5.83-2.94-13.37-0.68-19.59   c8.42-23.12,27.44-40.85,48.88-55.76c-16.44-2.02-33.4-1.92-49.06-7.07c-8.01-2.63-15.8-7.32-18.28-14.84   C-1.67,63.46,1.59,55.12,5.6,48.1c7.89-13.81,20.34-25.52,34.86-34.23C57.26,3.78,79.27-3.56,99.64,1.8   C116.76,6.31,129.35,21.52,123.87,37.25z M75.4,94.26c-10.78,7.68-20.95,16.08-29.4,25.69c-5.53,6.3-10.39,13.12-14.01,20.41   c-3.12,6.3-6.37,13.91-4.64,20.86c1.94,7.81,10.73,10.98,19.15,9.26c8.37-1.71,16.55-5.95,23.58-10.17   c13.7-8.23,26.12-20.14,32.66-33.62c3.55-7.3,4.56-15.83-1.94-22.13c-5.94-5.75-14.91-8.34-23.32-9.94   C76.79,94.5,76.1,94.38,75.4,94.26z"></path>	<g>		<path class="st0" d="M326.06,70.98c0,5.63-5.15,10.19-11.5,10.19c-6.34,0-11.49-4.56-11.49-10.19c0-5.63,5.15-10.2,11.49-10.2    C320.91,60.78,326.06,65.35,326.06,70.98z"></path>		<path class="st0" d="M420.43,69.52c-1.26,1.14-7.06,3.01-7.15,0.09c-0.08-2.18-0.66-4.45-1.04-6.61c-0.38-2.21-1.1-4.46-2.3-6.43    c-2.58-4.25-7.56-6.73-12.67-7.62c-5.55-0.97-11.55-0.32-17.12,0.33c-4.93,0.58-9.83,1.34-14.7,2.18    c0.08,20.59-0.12,41.19-0.14,61.78c1.71,57.53,18.56,26.42,30.68,1.01c0.71-1.5,6.91-2.67,6.42-1.13    c-11.62,36.35-45.13,58.98-51.69,13.8c-14.59,27.13-39.33,38.66-45.38,1.68c-11.79,25.4-21.96,24.69-26.69,22.43    c-5.15-2.48-7.59-8.49-8.28-13.41c-1.68-12.05,1.17-24.52,2.23-36.53c0.25-2.75,1.02-5.74,0.68-8.52    c-0.43-3.58-4.38,0.24-5.72,1.53c-4.43,4.28-7.21,10.05-9.66,15.4c-4.49,9.84-7.06,20.15-8.44,30.67    c-1.64,1.01-3.15,1.58-4.55,1.85c-2.67,0.53-4.88-0.05-6.46-0.82c-0.73-0.34-1.39-0.76-2.01-1.24c-0.19-0.8-0.34-1.58-0.45-2.34    c-1.69-12.05,1.18-24.52,2.23-36.53c0.24-2.75,1.01-5.74,0.68-8.52c-0.43-3.58-4.39,0.24-5.72,1.53    c-0.42,0.41-0.83,0.82-1.21,1.26c-3.75,4.11-6.24,9.29-8.45,14.14c-5.02,11-7.63,22.58-8.89,34.4v2.94    c-0.01,2.96-6.34,4.73-8.63,5.05c-2.57,0.37-6.81,0.31-6.81-2.8c-0.01-18.9-0.02-37.8-0.02-56.71c0-2.97,6.36-4.74,8.65-5.07    c2.57-0.37,6.84-0.3,6.84,2.81c-0.01,10.32-0.01,20.62-0.02,30.94c1.59-4.95,3.56-9.8,5.89-14.47c2.7-5.44,6.41-12.39,11.99-16.46    c2.89-2.12,6.28-3.44,10.28-3.38c1.72,0.03,3.18,0.35,4.41,0.93c7.81,3.57,6.31,16.78,5.09,24.58c0.82-1.92,1.69-3.81,2.62-5.67    c4.08-8.25,10.55-20.03,22.26-19.84c14.19,0.24,10.29,20.5,9.04,28.33c-8.86,55.79,8.84,27.74,18.09,4.67    c-0.22-3.25-0.35-6.77-0.35-10.58c0.01-5.55,0.74-11.1,1.73-16.58c0.96-5.3,18.2-9.01,17.6-2.57c-0.81,8.66-1.56,17.23-1.74,25.93    c-1.03,50.16,14.02,23.59,16.36,20.24c4.81-6.89,8.46-14.39,11.76-21.96c-0.04-1.58-0.07-3.23-0.07-4.93    c0-1.84,0.09-3.69,0.24-5.53c-0.06-16.56-0.18-33.11-0.11-49.67c-6.22,0.98-12.47,1.8-18.77,2.23    c-9.65,0.63-20.73,0.67-29.33-3.97c-7.3-3.95-12.08-13.04-6.48-19.94c1.66-2.04,4.58-3.04,7.28-3.26c1.17-0.1,5.56,0.13,4.66,2.29    c-3.78,9.14,2.59,18.01,12.78,20.06c9.77,1.96,20.06,1,29.87-0.4c0.04-6.98,0.12-13.95,0.25-20.94c0.05-2.92,6.19-4.64,8.49-4.96    c2.57-0.37,6.64-0.29,6.7,2.75c0.13,6.85,0.2,13.71,0.25,20.58c6.48-1.16,12.97-2.29,19.54-3.06c10.2-1.19,21.5-2.05,30.75,2.87    c4.05,2.16,7.59,5.25,8.93,9.43C426.12,62.36,423.99,66.31,420.43,69.52z"></path>		<path class="st0" d="M188.52,130.84c-0.05,6.09-0.11,12.39,0.08,18.56c0.01,0.36-0.11,0.9-0.72,1.42    c-0.99,0.81-2.92,1.24-4.33,1.24c-1.95,0-2.82-0.86-2.99-1.66c-0.96-4.67-1.69-8.93-2.22-13.01c-0.49-3.7-0.78-7.53-0.89-11.69    c-0.71,1.55-1.43,3.05-2.17,4.49c-1.99,3.85-4.13,7.26-6.51,10.45c-1.28,1.7-2.65,3.34-4.05,4.85c-1.36,1.47-2.99,3.14-5.19,4.41    c-2.35,1.34-5.13,2.05-8.05,2.05c-3.02,0-6.02-0.78-8.43-2.22c-4.24-2.53-6.91-6.4-8.96-9.85c-4.42-7.41-5.5-15.6-6.02-23.32    c-0.29-4.37-0.37-8.72-0.23-12.94c0.12-3.84,0.28-8.62,1.19-13.16c0.45-2.23,4.83-3.16,7.08-3.16c1.46,0,2.56,0.31,3.27,0.92    c0.54,0.46,0.8,1.06,0.76,1.71c-0.12,1.73-0.28,3.49-0.45,5.18c-0.26,2.71-0.52,5.52-0.6,8.28c-0.13,4.52-0.02,9.03,0.34,13.4    c0.56,6.77,1.5,13.98,4.61,20.91c0.14,0.31,0.28,0.62,0.42,0.93c0,0,0.02,0.03,0.04,0.1c0.6,1.16,6.64,12.23,15.46,3.1    c9.77-11.23,14.02-24.24,18.11-36.85c0.41-5.23,0.98-10.01,1.74-14.6c0.36-2.17,4.45-3.18,7.08-3.18c1.52,0,2.64,0.32,3.34,0.94    c0.52,0.47,0.77,1.09,0.69,1.74c-0.57,4.62-1.08,8.81-1.45,13.08c-0.58,6.7-0.88,14.06-0.94,23.14    C188.55,127.66,188.53,129.26,188.52,130.84z"></path>	</g></g></svg>