<svg xmlns="http://www.w3.org/2000/svg" xmlns:xlink="http://www.w3.org/1999/xlink" id="Layer_1" x="0px" y="0px" viewBox="0 0 50 50" style="enable-background:new 0 0 50 50;" xml:space="preserve"><style type="text/css">	.st0{fill-rule:evenodd;clip-rule:evenodd;fill:#0F8CC3;}	.st1{fill:#0F8CC3;}	.st2{fill-rule:evenodd;clip-rule:evenodd;fill:#FFFFFF;}</style><path class="st1" d="M40.74,48.9H9.26c-4.86,0-8.8-3.94-8.8-8.8V9.9c0-4.86,3.94-8.8,8.8-8.8h31.49c4.86,0,8.8,3.94,8.8,8.8v30.2  C49.54,44.96,45.6,48.9,40.74,48.9z"></path><path class="st2" d="M42.11,15.65c0.08,0.62,0.13,1.29,0.13,2c0,1.98-0.37,4.2-1.48,6.98L34.8,41.86c5.8-3.38,9.7-9.66,9.7-16.85  C44.5,21.61,43.63,18.43,42.11,15.65L42.11,15.65z M25.34,26.71l-5.85,17c1.75,0.51,3.59,0.79,5.51,0.79c2.27,0,4.45-0.39,6.47-1.11  c-0.05-0.08-0.1-0.17-0.14-0.27L25.34,26.71L25.34,26.71z M38.16,24.02c0,1.67-0.26,2.81-1.11,5.51l-2.32,7.29l-7.05-20.96  c1.17-0.06,2.23-0.19,2.23-0.19c1.05-0.12,0.93-1.92-0.13-1.86c0,0-3.16,0.25-5.2,0.25c-1.92,0-5.14-0.25-5.14-0.25  c-1.05-0.06-1.17,1.8-0.12,1.86c0,0,0.99,0.12,2.04,0.19l2.98,8.17l-0.08,0.24l-4.23,12.43l-7.01-20.84  c1.18-0.06,2.23-0.19,2.23-0.19c1.05-0.12,0.93-1.92-0.13-1.86c0,0-3.16,0.25-5.2,0.25c-0.37,0-0.8-0.01-1.25-0.02  C11.94,8.72,18.19,5.51,25,5.51c5.08,0,9.7,1.94,13.17,5.12c-2.01-0.11-3.53,1.47-3.53,3.45c0,1.61,0.93,2.97,1.91,4.57  C37.3,19.94,38.16,21.61,38.16,24.02L38.16,24.02z M5.5,25c0,7.72,4.48,14.39,10.99,17.55l-9.3-25.48C6.11,19.49,5.5,22.18,5.5,25  L5.5,25z M25,3.87c11.67,0,21.13,9.46,21.13,21.13S36.67,46.13,25,46.13S3.87,36.67,3.87,25S13.33,3.87,25,3.87L25,3.87z M25,2.25  c12.57,0,22.75,10.19,22.75,22.75S37.57,47.75,25,47.75S2.25,37.57,2.25,25S12.43,2.25,25,2.25z"></path></svg>